<mxfile host="Electron" modified="2024-07-08T14:02:37.349Z" agent="Mozilla/5.0 (Windows NT 10.0; Win64; x64) AppleWebKit/537.36 (KHTML, like Gecko) draw.io/21.2.1 Chrome/112.0.5615.87 Electron/24.1.2 Safari/537.36" etag="gXwEfcwFN1oQeirU8oO7" version="21.2.1" type="device">
  <diagram name="Page-1" id="1KvLHjhDO8Ya7sMIbihE">
    <mxGraphModel dx="1548" dy="902" grid="1" gridSize="10" guides="0" tooltips="1" connect="0" arrows="0" fold="1" page="1" pageScale="1" pageWidth="1169" pageHeight="827" math="0" shadow="0">
      <root>
        <mxCell id="0" />
        <mxCell id="1" parent="0" />
        <mxCell id="gW3RS581xUKZD0ln1KTk-149" value="" style="rounded=0;whiteSpace=wrap;html=1;" parent="1" vertex="1">
          <mxGeometry x="100.5" y="50" width="319.5" height="179" as="geometry" />
        </mxCell>
        <mxCell id="rAkCXhPuqPbyu8A7eklI-6" value="" style="rounded=0;whiteSpace=wrap;html=1;" parent="1" vertex="1">
          <mxGeometry x="100" y="229" width="319.5" height="179" as="geometry" />
        </mxCell>
        <mxCell id="rAkCXhPuqPbyu8A7eklI-7" value="" style="ellipse;whiteSpace=wrap;html=1;aspect=fixed;" parent="1" vertex="1">
          <mxGeometry x="384.5" y="298" width="20.58" height="20.58" as="geometry" />
        </mxCell>
        <mxCell id="rAkCXhPuqPbyu8A7eklI-8" value="" style="rounded=0;whiteSpace=wrap;html=1;" parent="1" vertex="1">
          <mxGeometry x="100" y="408" width="319.5" height="179" as="geometry" />
        </mxCell>
        <mxCell id="rAkCXhPuqPbyu8A7eklI-9" value="" style="ellipse;whiteSpace=wrap;html=1;aspect=fixed;" parent="1" vertex="1">
          <mxGeometry x="384.5" y="477" width="20.58" height="20.58" as="geometry" />
        </mxCell>
        <mxCell id="rAkCXhPuqPbyu8A7eklI-10" value="" style="rounded=0;whiteSpace=wrap;html=1;" parent="1" vertex="1">
          <mxGeometry x="100" y="587" width="319.5" height="179" as="geometry" />
        </mxCell>
        <mxCell id="rAkCXhPuqPbyu8A7eklI-11" value="" style="ellipse;whiteSpace=wrap;html=1;aspect=fixed;" parent="1" vertex="1">
          <mxGeometry x="384.5" y="656" width="20.58" height="20.58" as="geometry" />
        </mxCell>
        <mxCell id="zjbpPbley1TwkYgg-s3r-1" value="" style="rounded=0;whiteSpace=wrap;html=1;" parent="1" vertex="1">
          <mxGeometry x="419.94" y="50" width="319.5" height="179" as="geometry" />
        </mxCell>
        <mxCell id="zjbpPbley1TwkYgg-s3r-2" value="" style="ellipse;whiteSpace=wrap;html=1;aspect=fixed;" parent="1" vertex="1">
          <mxGeometry x="704.44" y="119" width="20.58" height="20.58" as="geometry" />
        </mxCell>
        <mxCell id="zjbpPbley1TwkYgg-s3r-3" value="тема" style="text;html=1;strokeColor=none;fillColor=none;align=center;verticalAlign=middle;whiteSpace=wrap;rounded=0;fontSize=12;rotation=-90;" parent="1" vertex="1">
          <mxGeometry x="341" y="135.36" width="177" height="13.12" as="geometry" />
        </mxCell>
        <mxCell id="zjbpPbley1TwkYgg-s3r-10" value="" style="rounded=0;whiteSpace=wrap;html=1;" parent="1" vertex="1">
          <mxGeometry x="419.44" y="229" width="319.5" height="179" as="geometry" />
        </mxCell>
        <mxCell id="zjbpPbley1TwkYgg-s3r-11" value="" style="ellipse;whiteSpace=wrap;html=1;aspect=fixed;" parent="1" vertex="1">
          <mxGeometry x="703.94" y="298" width="20.58" height="20.58" as="geometry" />
        </mxCell>
        <mxCell id="zjbpPbley1TwkYgg-s3r-12" value="" style="rounded=0;whiteSpace=wrap;html=1;" parent="1" vertex="1">
          <mxGeometry x="419.44" y="408" width="319.5" height="179" as="geometry" />
        </mxCell>
        <mxCell id="zjbpPbley1TwkYgg-s3r-13" value="" style="ellipse;whiteSpace=wrap;html=1;aspect=fixed;" parent="1" vertex="1">
          <mxGeometry x="703.94" y="477" width="20.58" height="20.58" as="geometry" />
        </mxCell>
        <mxCell id="zjbpPbley1TwkYgg-s3r-14" value="" style="rounded=0;whiteSpace=wrap;html=1;" parent="1" vertex="1">
          <mxGeometry x="419.44" y="587" width="319.5" height="179" as="geometry" />
        </mxCell>
        <mxCell id="zjbpPbley1TwkYgg-s3r-15" value="" style="ellipse;whiteSpace=wrap;html=1;aspect=fixed;" parent="1" vertex="1">
          <mxGeometry x="703.94" y="656" width="20.58" height="20.58" as="geometry" />
        </mxCell>
        <mxCell id="zjbpPbley1TwkYgg-s3r-16" value="" style="endArrow=none;html=1;rounded=0;" parent="1" edge="1">
          <mxGeometry width="50" height="50" relative="1" as="geometry">
            <mxPoint x="439.44" y="810" as="sourcePoint" />
            <mxPoint x="439.44" y="20" as="targetPoint" />
          </mxGeometry>
        </mxCell>
        <mxCell id="zjbpPbley1TwkYgg-s3r-17" value="" style="rounded=0;whiteSpace=wrap;html=1;" parent="1" vertex="1">
          <mxGeometry x="738.94" y="50" width="319.5" height="179" as="geometry" />
        </mxCell>
        <mxCell id="zjbpPbley1TwkYgg-s3r-18" value="" style="ellipse;whiteSpace=wrap;html=1;aspect=fixed;" parent="1" vertex="1">
          <mxGeometry x="1023.44" y="119" width="20.58" height="20.58" as="geometry" />
        </mxCell>
        <mxCell id="zjbpPbley1TwkYgg-s3r-19" value="тема" style="text;html=1;strokeColor=none;fillColor=none;align=center;verticalAlign=middle;whiteSpace=wrap;rounded=0;fontSize=12;rotation=-90;" parent="1" vertex="1">
          <mxGeometry x="660" y="135.36" width="177" height="13.12" as="geometry" />
        </mxCell>
        <mxCell id="zjbpPbley1TwkYgg-s3r-26" value="" style="rounded=0;whiteSpace=wrap;html=1;" parent="1" vertex="1">
          <mxGeometry x="738.44" y="229" width="319.5" height="179" as="geometry" />
        </mxCell>
        <mxCell id="zjbpPbley1TwkYgg-s3r-27" value="" style="ellipse;whiteSpace=wrap;html=1;aspect=fixed;" parent="1" vertex="1">
          <mxGeometry x="1022.94" y="298" width="20.58" height="20.58" as="geometry" />
        </mxCell>
        <mxCell id="zjbpPbley1TwkYgg-s3r-28" value="" style="rounded=0;whiteSpace=wrap;html=1;" parent="1" vertex="1">
          <mxGeometry x="738.44" y="408" width="319.5" height="179" as="geometry" />
        </mxCell>
        <mxCell id="zjbpPbley1TwkYgg-s3r-29" value="" style="ellipse;whiteSpace=wrap;html=1;aspect=fixed;" parent="1" vertex="1">
          <mxGeometry x="1022.94" y="477" width="20.58" height="20.58" as="geometry" />
        </mxCell>
        <mxCell id="zjbpPbley1TwkYgg-s3r-30" value="" style="rounded=0;whiteSpace=wrap;html=1;" parent="1" vertex="1">
          <mxGeometry x="738.44" y="587" width="319.5" height="179" as="geometry" />
        </mxCell>
        <mxCell id="zjbpPbley1TwkYgg-s3r-31" value="" style="ellipse;whiteSpace=wrap;html=1;aspect=fixed;" parent="1" vertex="1">
          <mxGeometry x="1022.94" y="656" width="20.58" height="20.58" as="geometry" />
        </mxCell>
        <mxCell id="zjbpPbley1TwkYgg-s3r-32" value="" style="endArrow=none;html=1;rounded=0;" parent="1" edge="1">
          <mxGeometry width="50" height="50" relative="1" as="geometry">
            <mxPoint x="758.44" y="810" as="sourcePoint" />
            <mxPoint x="758.44" y="20" as="targetPoint" />
          </mxGeometry>
        </mxCell>
        <mxCell id="zjbpPbley1TwkYgg-s3r-33" value="тема" style="text;html=1;strokeColor=none;fillColor=none;align=center;verticalAlign=middle;whiteSpace=wrap;rounded=0;fontSize=12;rotation=-90;" parent="1" vertex="1">
          <mxGeometry x="340" y="309" width="177" height="13.12" as="geometry" />
        </mxCell>
        <mxCell id="zjbpPbley1TwkYgg-s3r-34" value="тема" style="text;html=1;strokeColor=none;fillColor=none;align=center;verticalAlign=middle;whiteSpace=wrap;rounded=0;fontSize=12;rotation=-90;" parent="1" vertex="1">
          <mxGeometry x="660" y="309" width="177" height="13.12" as="geometry" />
        </mxCell>
        <mxCell id="zjbpPbley1TwkYgg-s3r-35" value="тема" style="text;html=1;strokeColor=none;fillColor=none;align=center;verticalAlign=middle;whiteSpace=wrap;rounded=0;fontSize=12;rotation=-90;" parent="1" vertex="1">
          <mxGeometry x="20" y="309" width="177" height="13.12" as="geometry" />
        </mxCell>
        <mxCell id="zjbpPbley1TwkYgg-s3r-36" value="тема" style="text;html=1;strokeColor=none;fillColor=none;align=center;verticalAlign=middle;whiteSpace=wrap;rounded=0;fontSize=12;rotation=-90;" parent="1" vertex="1">
          <mxGeometry x="660" y="489" width="177" height="13.12" as="geometry" />
        </mxCell>
        <mxCell id="zjbpPbley1TwkYgg-s3r-37" value="тема" style="text;html=1;strokeColor=none;fillColor=none;align=center;verticalAlign=middle;whiteSpace=wrap;rounded=0;fontSize=12;rotation=-90;" parent="1" vertex="1">
          <mxGeometry x="660" y="662.64" width="177" height="13.12" as="geometry" />
        </mxCell>
        <mxCell id="zjbpPbley1TwkYgg-s3r-38" value="тема" style="text;html=1;strokeColor=none;fillColor=none;align=center;verticalAlign=middle;whiteSpace=wrap;rounded=0;fontSize=12;rotation=-90;" parent="1" vertex="1">
          <mxGeometry x="340" y="489" width="177" height="13.12" as="geometry" />
        </mxCell>
        <mxCell id="zjbpPbley1TwkYgg-s3r-39" value="тема" style="text;html=1;strokeColor=none;fillColor=none;align=center;verticalAlign=middle;whiteSpace=wrap;rounded=0;fontSize=12;rotation=-90;" parent="1" vertex="1">
          <mxGeometry x="340" y="662.64" width="177" height="13.12" as="geometry" />
        </mxCell>
        <mxCell id="zjbpPbley1TwkYgg-s3r-40" value="тема" style="text;html=1;strokeColor=none;fillColor=none;align=center;verticalAlign=middle;whiteSpace=wrap;rounded=0;fontSize=12;rotation=-90;" parent="1" vertex="1">
          <mxGeometry x="20" y="489" width="177" height="13.12" as="geometry" />
        </mxCell>
        <mxCell id="zjbpPbley1TwkYgg-s3r-41" value="тема" style="text;html=1;strokeColor=none;fillColor=none;align=center;verticalAlign=middle;whiteSpace=wrap;rounded=0;fontSize=12;rotation=-90;" parent="1" vertex="1">
          <mxGeometry x="20" y="662.64" width="177" height="13.12" as="geometry" />
        </mxCell>
        <mxCell id="7dt6VXjJp-U3q9p6-CuM-1" value="" style="rounded=0;whiteSpace=wrap;html=1;fillColor=#d5e8d4;strokeColor=#82b366;" vertex="1" parent="1">
          <mxGeometry x="100.5" y="50" width="319.5" height="179" as="geometry" />
        </mxCell>
        <mxCell id="7dt6VXjJp-U3q9p6-CuM-2" value="" style="ellipse;whiteSpace=wrap;html=1;aspect=fixed;" vertex="1" parent="1">
          <mxGeometry x="385" y="119" width="20.58" height="20.58" as="geometry" />
        </mxCell>
        <mxCell id="7dt6VXjJp-U3q9p6-CuM-3" value="создание объекта" style="text;html=1;align=center;verticalAlign=middle;whiteSpace=wrap;rounded=0;fontSize=12;rotation=-90;" vertex="1" parent="1">
          <mxGeometry x="21.560000000000002" y="135.36" width="177" height="13.12" as="geometry" />
        </mxCell>
        <mxCell id="7dt6VXjJp-U3q9p6-CuM-4" value="const pers = &lt;b&gt;{ }&lt;/b&gt;;&amp;nbsp; // Литеральный объект" style="text;html=1;align=left;verticalAlign=middle;whiteSpace=wrap;rounded=0;" vertex="1" parent="1">
          <mxGeometry x="132" y="53" width="230" height="30" as="geometry" />
        </mxCell>
        <mxCell id="7dt6VXjJp-U3q9p6-CuM-5" value="const pers = &lt;b&gt;new Object()&lt;/b&gt;;&amp;nbsp; // ф-ия конструктор" style="text;html=1;align=left;verticalAlign=middle;whiteSpace=wrap;rounded=0;" vertex="1" parent="1">
          <mxGeometry x="132" y="89" width="278" height="30" as="geometry" />
        </mxCell>
        <mxCell id="7dt6VXjJp-U3q9p6-CuM-6" value="const pers = &lt;b&gt;Object.create(&lt;/b&gt;{}&lt;b&gt;)&lt;/b&gt;;&lt;br&gt;const pers = Object.create(null);&lt;br&gt;const pers = Object.create(prot);&lt;br&gt;const pers = Object.create(prot, {&lt;br&gt;&amp;nbsp; {descriptor1}, {descriptor2}&lt;br&gt;});" style="text;html=1;align=left;verticalAlign=middle;whiteSpace=wrap;rounded=0;" vertex="1" parent="1">
          <mxGeometry x="132" y="143" width="200" height="60" as="geometry" />
        </mxCell>
        <mxCell id="7dt6VXjJp-U3q9p6-CuM-7" value="" style="endArrow=none;html=1;rounded=0;" edge="1" parent="1">
          <mxGeometry width="50" height="50" relative="1" as="geometry">
            <mxPoint x="120" y="810" as="sourcePoint" />
            <mxPoint x="120" y="20" as="targetPoint" />
          </mxGeometry>
        </mxCell>
      </root>
    </mxGraphModel>
  </diagram>
</mxfile>
